<svg id="break_fw" class="util--img-responsive" width="3200px" height="204px" viewBox="0 0 3200 204" version="1.1" xmlns="http://www.w3.org/2000/svg">
    <g stroke="none" stroke-width="1" fill="none" fill-rule="evenodd">
        <g fill="#EBECEC">
            <polygon id="Path" points="3140.52045 59.8587361 3200 59.8587361 3200 0.379182156 3140.52045 0.379182156"></polygon>
            <polygon id="Path" opacity="0.8" points="3069.14498 59.8587361 3128.62454 59.8587361 3128.62454 0.379182156 3069.14498 0.379182156"></polygon>
            <polygon id="Path" points="2997.76952 59.8587361 3057.24907 59.8587361 3057.24907 0.379182156 2997.76952 0.379182156"></polygon>
            <polygon id="Path" opacity="0.6" points="2783.64312 59.8587361 2843.12268 59.8587361 2843.12268 0.379182156 2783.64312 0.379182156"></polygon>
            <polygon id="Path" points="2640.89219 59.8587361 2700.37175 59.8587361 2700.37175 0.379182156 2640.89219 0.379182156"></polygon>
            <polygon id="Path" opacity="0.4" points="2569.51673 59.8587361 2628.99628 59.8587361 2628.99628 0.379182156 2569.51673 0.379182156"></polygon>
            <polygon id="Path" points="2426.7658 59.8587361 2486.24535 59.8587361 2486.24535 0.379182156 2426.7658 0.379182156"></polygon>
            <polygon id="Path" points="2355.39033 59.8587361 2414.86989 59.8587361 2414.86989 0.379182156 2355.39033 0.379182156"></polygon>
            <polygon id="Path" points="2212.63941 59.8587361 2272.11896 59.8587361 2272.11896 0.379182156 2212.63941 0.379182156"></polygon>
            <polygon id="Path" points="2141.26394 59.8587361 2200.74349 59.8587361 2200.74349 0.379182156 2141.26394 0.379182156"></polygon>
            <polygon id="Path" points="1998.51301 59.8587361 2057.99257 59.8587361 2057.99257 0.379182156 1998.51301 0.379182156"></polygon>
            <polygon id="Path" opacity="0.6" points="1927.13755 59.8587361 1986.6171 59.8587361 1986.6171 0.379182156 1927.13755 0.379182156"></polygon>
            <polygon id="Path" points="1784.38662 59.8587361 1843.86617 59.8587361 1843.86617 0.379182156 1784.38662 0.379182156"></polygon>
            <polygon id="Path" opacity="0.4" points="1713.01115 59.8587361 1772.49071 59.8587361 1772.49071 0.379182156 1713.01115 0.379182156"></polygon>
            <polygon id="Path" points="1641.63569 59.8587361 1701.11524 59.8587361 1701.11524 0.379182156 1641.63569 0.379182156"></polygon>
            <polygon id="Path" points="1498.88476 59.8587361 1558.36431 59.8587361 1558.36431 0.379182156 1498.88476 0.379182156"></polygon>
            <polygon id="Path" points="1356.13383 59.8587361 1415.61338 59.8587361 1415.61338 0.379182156 1356.13383 0.379182156"></polygon>
            <polygon id="Path" points="1284.75836 59.8587361 1344.23792 59.8587361 1344.23792 0.379182156 1284.75836 0.379182156"></polygon>
            <polygon id="Path" points="1142.00743 59.8587361 1201.48699 59.8587361 1201.48699 0.379182156 1142.00743 0.379182156"></polygon>
            <polygon id="Path" points="927.881041 59.8587361 987.360595 59.8587361 987.360595 0.379182156 927.881041 0.379182156"></polygon>
            <polygon id="Path" points="785.130112 59.8587361 844.609665 59.8587361 844.609665 0.379182156 785.130112 0.379182156"></polygon>
            <polygon id="Path" opacity="0.8" points="713.754647 59.8587361 773.234201 59.8587361 773.234201 0.379182156 713.754647 0.379182156"></polygon>
            <polygon id="Path" opacity="0.6" points="571.003717 59.8587361 630.483271 59.8587361 630.483271 0.379182156 571.003717 0.379182156"></polygon>
            <polygon id="Path" points="428.252788 59.8587361 487.732342 59.8587361 487.732342 0.379182156 428.252788 0.379182156"></polygon>
            <polygon id="Path" points="214.126394 59.8587361 273.605948 59.8587361 273.605948 0.379182156 214.126394 0.379182156"></polygon>
            <polygon id="Path" opacity="0.8" points="71.3754647 59.8587361 130.855019 59.8587361 130.855019 0.379182156 71.3754647 0.379182156"></polygon>
            <polygon id="Path" points="0 59.8587361 59.4795539 59.8587361 59.4795539 0.379182156 0 0.379182156"></polygon>
            <polygon id="Path" opacity="0.6" points="3140.52045 131.234201 3200 131.234201 3200 71.7546468 3140.52045 71.7546468"></polygon>
            <polygon id="Path" opacity="0.4" points="2926.39405 131.234201 2985.87361 131.234201 2985.87361 71.7546468 2926.39405 71.7546468"></polygon>
            <polygon id="Path" points="2783.64312 131.234201 2843.12268 131.234201 2843.12268 71.7546468 2783.64312 71.7546468"></polygon>
            <polygon id="Path" points="2712.26766 131.234201 2771.74721 131.234201 2771.74721 71.7546468 2712.26766 71.7546468"></polygon>
            <polygon id="Path" opacity="0.8" points="2640.89219 131.234201 2700.37175 131.234201 2700.37175 71.7546468 2640.89219 71.7546468"></polygon>
            <polygon id="Path" points="2498.14126 131.234201 2557.62082 131.234201 2557.62082 71.7546468 2498.14126 71.7546468"></polygon>
            <polygon id="Path" points="2355.39033 131.234201 2414.86989 131.234201 2414.86989 71.7546468 2355.39033 71.7546468"></polygon>
            <polygon id="Path" opacity="0.8" points="2284.01487 131.234201 2343.49442 131.234201 2343.49442 71.7546468 2284.01487 71.7546468"></polygon>
            <polygon id="Path" opacity="0.4" points="2069.88848 131.234201 2129.36803 131.234201 2129.36803 71.7546468 2069.88848 71.7546468"></polygon>
            <polygon id="Path" points="1998.51301 131.234201 2057.99257 131.234201 2057.99257 71.7546468 1998.51301 71.7546468"></polygon>
            <polygon id="Path" points="1855.76208 131.234201 1915.24164 131.234201 1915.24164 71.7546468 1855.76208 71.7546468"></polygon>
            <polygon id="Path" points="1713.01115 131.234201 1772.49071 131.234201 1772.49071 71.7546468 1713.01115 71.7546468"></polygon>
            <polygon id="Path" opacity="0.6" points="1498.88476 131.234201 1558.36431 131.234201 1558.36431 71.7546468 1498.88476 71.7546468"></polygon>
            <polygon id="Path" points="1427.50929 131.234201 1486.98885 131.234201 1486.98885 71.7546468 1427.50929 71.7546468"></polygon>
            <polygon id="Path" points="1284.75836 131.234201 1344.23792 131.234201 1344.23792 71.7546468 1284.75836 71.7546468"></polygon>
            <polygon id="Path" points="1213.3829 131.234201 1272.86245 131.234201 1272.86245 71.7546468 1213.3829 71.7546468"></polygon>
            <polygon id="Path" points="1142.00743 131.234201 1201.48699 131.234201 1201.48699 71.7546468 1142.00743 71.7546468"></polygon>
            <polygon id="Path" opacity="0.4" points="999.256506 131.234201 1058.73606 131.234201 1058.73606 71.7546468 999.256506 71.7546468"></polygon>
            <polygon id="Path" points="927.881041 131.234201 987.360595 131.234201 987.360595 71.7546468 927.881041 71.7546468"></polygon>
            <polygon id="Path" opacity="0.6" points="856.505576 131.234201 915.98513 131.234201 915.98513 71.7546468 856.505576 71.7546468"></polygon>
            <polygon id="Path" points="713.754647 131.234201 773.234201 131.234201 773.234201 71.7546468 713.754647 71.7546468"></polygon>
            <polygon id="Path" points="571.003717 131.234201 630.483271 131.234201 630.483271 71.7546468 571.003717 71.7546468"></polygon>
            <polygon id="Path" points="356.877323 131.234201 416.356877 131.234201 416.356877 71.7546468 356.877323 71.7546468"></polygon>
            <polygon id="Path" points="285.501859 131.234201 344.981413 131.234201 344.981413 71.7546468 285.501859 71.7546468"></polygon>
            <polygon id="Path" opacity="0.4" points="214.126394 131.234201 273.605948 131.234201 273.605948 71.7546468 214.126394 71.7546468"></polygon>
            <polygon id="Path" opacity="0.6" points="142.750929 131.234201 202.230483 131.234201 202.230483 71.7546468 142.750929 71.7546468"></polygon>
            <polygon id="Path" points="0 131.234201 59.4795539 131.234201 59.4795539 71.7546468 0 71.7546468"></polygon>
            <polygon id="Path" points="3069.14498 202.609665 3128.62454 202.609665 3128.62454 143.130112 3069.14498 143.130112"></polygon>
            <polygon id="Path" points="2855.01859 202.609665 2914.49814 202.609665 2914.49814 143.130112 2855.01859 143.130112"></polygon>
            <polygon id="Path" points="2640.89219 202.609665 2700.37175 202.609665 2700.37175 143.130112 2640.89219 143.130112"></polygon>
            <polygon id="Path" points="2569.51673 202.609665 2628.99628 202.609665 2628.99628 143.130112 2569.51673 143.130112"></polygon>
            <polygon id="Path" opacity="0.6" points="2426.7658 202.609665 2486.24535 202.609665 2486.24535 143.130112 2426.7658 143.130112"></polygon>
            <polygon id="Path" points="2284.01487 202.609665 2343.49442 202.609665 2343.49442 143.130112 2284.01487 143.130112"></polygon>
            <polygon id="Path" points="2212.63941 202.609665 2272.11896 202.609665 2272.11896 143.130112 2212.63941 143.130112"></polygon>
            <polygon id="Path" points="2069.88848 202.609665 2129.36803 202.609665 2129.36803 143.130112 2069.88848 143.130112"></polygon>
            <polygon id="Path" points="1998.51301 202.609665 2057.99257 202.609665 2057.99257 143.130112 1998.51301 143.130112"></polygon>
            <polygon id="Path" opacity="0.8" points="1784.38662 203.479554 1843.86617 203.479554 1843.86617 144 1784.38662 144"></polygon>
            <polygon id="Path" points="1713.01115 202.609665 1772.49071 202.609665 1772.49071 143.130112 1713.01115 143.130112"></polygon>
            <polygon id="Path" points="1570.26022 202.609665 1629.73978 202.609665 1629.73978 143.130112 1570.26022 143.130112"></polygon>
            <polygon id="Path" points="1356.13383 202.609665 1415.61338 202.609665 1415.61338 143.130112 1356.13383 143.130112"></polygon>
            <polygon id="Path" opacity="0.8" points="1284.75836 202.609665 1344.23792 202.609665 1344.23792 143.130112 1284.75836 143.130112"></polygon>
            <polygon id="Path" points="1070.63197 202.609665 1130.11152 202.609665 1130.11152 143.130112 1070.63197 143.130112"></polygon>
            <polygon id="Path" points="927.881041 202.609665 987.360595 202.609665 987.360595 143.130112 927.881041 143.130112"></polygon>
            <polygon id="Path" points="785.130112 202.609665 844.609665 202.609665 844.609665 143.130112 785.130112 143.130112"></polygon>
            <polygon id="Path" points="713.754647 202.609665 773.234201 202.609665 773.234201 143.130112 713.754647 143.130112"></polygon>
            <polygon id="Path" fill-opacity="0.4" points="642.379182 202.609665 701.858736 202.609665 701.858736 143.130112 642.379182 143.130112"></polygon>
            <polygon id="Path" points="499.628253 202.609665 559.107807 202.609665 559.107807 143.130112 499.628253 143.130112"></polygon>
            <polygon id="Path" points="428.252788 202.609665 487.732342 202.609665 487.732342 143.130112 428.252788 143.130112"></polygon>
            <polygon id="Path" opacity="0.8" points="356.877323 202.609665 416.356877 202.609665 416.356877 143.130112 356.877323 143.130112"></polygon>
            <polygon id="Path" points="214.126394 202.609665 273.605948 202.609665 273.605948 143.130112 214.126394 143.130112"></polygon>
            <polygon id="Path" points="71.3754647 202.609665 130.855019 202.609665 130.855019 143.130112 71.3754647 143.130112"></polygon>
        </g>
    </g>
</svg>