<?xml version="1.0" encoding="UTF-8" standalone="no"?>
<svg width="1600px" height="102px" viewBox="0 0 1600 102" version="1.1" xmlns="http://www.w3.org/2000/svg" xmlns:xlink="http://www.w3.org/1999/xlink">
    <!-- Generator: Sketch 46.1 (44463) - http://www.bohemiancoding.com/sketch -->
    <title>Group 3</title>
    <desc>Created with Sketch.</desc>
    <defs></defs>
    <g id="Desktop-HD" stroke="none" stroke-width="1" fill="none" fill-rule="evenodd">
        <g id="Homepage" transform="translate(0.000000, -1869.000000)" fill="#EBECEC">
            <g id="Group-3" transform="translate(0.000000, 1869.000000)">
                <polygon id="Path" points="1570.26022 29.929368 1600 29.929368 1600 0.189591078 1570.26022 0.189591078"></polygon>
                <polygon id="Path" opacity="0.8" points="1534.57249 29.929368 1564.31227 29.929368 1564.31227 0.189591078 1534.57249 0.189591078"></polygon>
                <polygon id="Path" points="1498.88476 29.929368 1528.62454 29.929368 1528.62454 0.189591078 1498.88476 0.189591078"></polygon>
                <polygon id="Path" opacity="0.6" points="1391.82156 29.929368 1421.56134 29.929368 1421.56134 0.189591078 1391.82156 0.189591078"></polygon>
                <polygon id="Path" points="1320.4461 29.929368 1350.18587 29.929368 1350.18587 0.189591078 1320.4461 0.189591078"></polygon>
                <polygon id="Path" opacity="0.4" points="1284.75836 29.929368 1314.49814 29.929368 1314.49814 0.189591078 1284.75836 0.189591078"></polygon>
                <polygon id="Path" points="1213.3829 29.929368 1243.12268 29.929368 1243.12268 0.189591078 1213.3829 0.189591078"></polygon>
                <polygon id="Path" points="1177.69517 29.929368 1207.43494 29.929368 1207.43494 0.189591078 1177.69517 0.189591078"></polygon>
                <polygon id="Path" points="1106.3197 29.929368 1136.05948 29.929368 1136.05948 0.189591078 1106.3197 0.189591078"></polygon>
                <polygon id="Path" points="1070.63197 29.929368 1100.37175 29.929368 1100.37175 0.189591078 1070.63197 0.189591078"></polygon>
                <polygon id="Path" points="999.256506 29.929368 1028.99628 29.929368 1028.99628 0.189591078 999.256506 0.189591078"></polygon>
                <polygon id="Path" opacity="0.6" points="963.568773 29.929368 993.30855 29.929368 993.30855 0.189591078 963.568773 0.189591078"></polygon>
                <polygon id="Path" points="892.193309 29.929368 921.933086 29.929368 921.933086 0.189591078 892.193309 0.189591078"></polygon>
                <polygon id="Path" opacity="0.4" points="856.505576 29.929368 886.245353 29.929368 886.245353 0.189591078 856.505576 0.189591078"></polygon>
                <polygon id="Path" points="820.817844 29.929368 850.557621 29.929368 850.557621 0.189591078 820.817844 0.189591078"></polygon>
                <polygon id="Path" points="749.442379 29.929368 779.182156 29.929368 779.182156 0.189591078 749.442379 0.189591078"></polygon>
                <polygon id="Path" points="678.066914 29.929368 707.806691 29.929368 707.806691 0.189591078 678.066914 0.189591078"></polygon>
                <polygon id="Path" points="642.379182 29.929368 672.118959 29.929368 672.118959 0.189591078 642.379182 0.189591078"></polygon>
                <polygon id="Path" points="571.003717 29.929368 600.743494 29.929368 600.743494 0.189591078 571.003717 0.189591078"></polygon>
                <polygon id="Path" points="463.94052 29.929368 493.680297 29.929368 493.680297 0.189591078 463.94052 0.189591078"></polygon>
                <polygon id="Path" points="392.565056 29.929368 422.304833 29.929368 422.304833 0.189591078 392.565056 0.189591078"></polygon>
                <polygon id="Path" opacity="0.8" points="356.877323 29.929368 386.6171 29.929368 386.6171 0.189591078 356.877323 0.189591078"></polygon>
                <polygon id="Path" opacity="0.6" points="285.501859 29.929368 315.241636 29.929368 315.241636 0.189591078 285.501859 0.189591078"></polygon>
                <polygon id="Path" points="214.126394 29.929368 243.866171 29.929368 243.866171 0.189591078 214.126394 0.189591078"></polygon>
                <polygon id="Path" points="107.063197 29.929368 136.802974 29.929368 136.802974 0.189591078 107.063197 0.189591078"></polygon>
                <polygon id="Path" opacity="0.8" points="35.6877323 29.929368 65.4275093 29.929368 65.4275093 0.189591078 35.6877323 0.189591078"></polygon>
                <polygon id="Path" points="0 29.929368 29.739777 29.929368 29.739777 0.189591078 0 0.189591078"></polygon>
                <polygon id="Path" opacity="0.6" points="1570.26022 65.6171004 1600 65.6171004 1600 35.8773234 1570.26022 35.8773234"></polygon>
                <polygon id="Path" opacity="0.4" points="1463.19703 65.6171004 1492.9368 65.6171004 1492.9368 35.8773234 1463.19703 35.8773234"></polygon>
                <polygon id="Path" points="1391.82156 65.6171004 1421.56134 65.6171004 1421.56134 35.8773234 1391.82156 35.8773234"></polygon>
                <polygon id="Path" points="1356.13383 65.6171004 1385.87361 65.6171004 1385.87361 35.8773234 1356.13383 35.8773234"></polygon>
                <polygon id="Path" opacity="0.8" points="1320.4461 65.6171004 1350.18587 65.6171004 1350.18587 35.8773234 1320.4461 35.8773234"></polygon>
                <polygon id="Path" points="1249.07063 65.6171004 1278.81041 65.6171004 1278.81041 35.8773234 1249.07063 35.8773234"></polygon>
                <polygon id="Path" points="1177.69517 65.6171004 1207.43494 65.6171004 1207.43494 35.8773234 1177.69517 35.8773234"></polygon>
                <polygon id="Path" opacity="0.8" points="1142.00743 65.6171004 1171.74721 65.6171004 1171.74721 35.8773234 1142.00743 35.8773234"></polygon>
                <polygon id="Path" opacity="0.4" points="1034.94424 65.6171004 1064.68401 65.6171004 1064.68401 35.8773234 1034.94424 35.8773234"></polygon>
                <polygon id="Path" points="999.256506 65.6171004 1028.99628 65.6171004 1028.99628 35.8773234 999.256506 35.8773234"></polygon>
                <polygon id="Path" points="927.881041 65.6171004 957.620818 65.6171004 957.620818 35.8773234 927.881041 35.8773234"></polygon>
                <polygon id="Path" points="856.505576 65.6171004 886.245353 65.6171004 886.245353 35.8773234 856.505576 35.8773234"></polygon>
                <polygon id="Path" opacity="0.6" points="749.442379 65.6171004 779.182156 65.6171004 779.182156 35.8773234 749.442379 35.8773234"></polygon>
                <polygon id="Path" points="713.754647 65.6171004 743.494424 65.6171004 743.494424 35.8773234 713.754647 35.8773234"></polygon>
                <polygon id="Path" points="642.379182 65.6171004 672.118959 65.6171004 672.118959 35.8773234 642.379182 35.8773234"></polygon>
                <polygon id="Path" points="606.69145 65.6171004 636.431227 65.6171004 636.431227 35.8773234 606.69145 35.8773234"></polygon>
                <polygon id="Path" points="571.003717 65.6171004 600.743494 65.6171004 600.743494 35.8773234 571.003717 35.8773234"></polygon>
                <polygon id="Path" opacity="0.4" points="499.628253 65.6171004 529.36803 65.6171004 529.36803 35.8773234 499.628253 35.8773234"></polygon>
                <polygon id="Path" points="463.94052 65.6171004 493.680297 65.6171004 493.680297 35.8773234 463.94052 35.8773234"></polygon>
                <polygon id="Path" opacity="0.6" points="428.252788 65.6171004 457.992565 65.6171004 457.992565 35.8773234 428.252788 35.8773234"></polygon>
                <polygon id="Path" points="356.877323 65.6171004 386.6171 65.6171004 386.6171 35.8773234 356.877323 35.8773234"></polygon>
                <polygon id="Path" points="285.501859 65.6171004 315.241636 65.6171004 315.241636 35.8773234 285.501859 35.8773234"></polygon>
                <polygon id="Path" points="178.438662 65.6171004 208.178439 65.6171004 208.178439 35.8773234 178.438662 35.8773234"></polygon>
                <polygon id="Path" points="142.750929 65.6171004 172.490706 65.6171004 172.490706 35.8773234 142.750929 35.8773234"></polygon>
                <polygon id="Path" opacity="0.4" points="107.063197 65.6171004 136.802974 65.6171004 136.802974 35.8773234 107.063197 35.8773234"></polygon>
                <polygon id="Path" opacity="0.6" points="71.3754647 65.6171004 101.115242 65.6171004 101.115242 35.8773234 71.3754647 35.8773234"></polygon>
                <polygon id="Path" points="0 65.6171004 29.739777 65.6171004 29.739777 35.8773234 0 35.8773234"></polygon>
                <polygon id="Path" points="1534.57249 101.304833 1564.31227 101.304833 1564.31227 71.5650558 1534.57249 71.5650558"></polygon>
                <polygon id="Path" points="1427.50929 101.304833 1457.24907 101.304833 1457.24907 71.5650558 1427.50929 71.5650558"></polygon>
                <polygon id="Path" points="1320.4461 101.304833 1350.18587 101.304833 1350.18587 71.5650558 1320.4461 71.5650558"></polygon>
                <polygon id="Path" points="1284.75836 101.304833 1314.49814 101.304833 1314.49814 71.5650558 1284.75836 71.5650558"></polygon>
                <polygon id="Path" opacity="0.6" points="1213.3829 101.304833 1243.12268 101.304833 1243.12268 71.5650558 1213.3829 71.5650558"></polygon>
                <polygon id="Path" points="1142.00743 101.304833 1171.74721 101.304833 1171.74721 71.5650558 1142.00743 71.5650558"></polygon>
                <polygon id="Path" points="1106.3197 101.304833 1136.05948 101.304833 1136.05948 71.5650558 1106.3197 71.5650558"></polygon>
                <polygon id="Path" points="1034.94424 101.304833 1064.68401 101.304833 1064.68401 71.5650558 1034.94424 71.5650558"></polygon>
                <polygon id="Path" points="999.256506 101.304833 1028.99628 101.304833 1028.99628 71.5650558 999.256506 71.5650558"></polygon>
                <polygon id="Path" opacity="0.8" points="892.193309 101.739777 921.933086 101.739777 921.933086 72 892.193309 72"></polygon>
                <polygon id="Path" points="856.505576 101.304833 886.245353 101.304833 886.245353 71.5650558 856.505576 71.5650558"></polygon>
                <polygon id="Path" points="785.130112 101.304833 814.869888 101.304833 814.869888 71.5650558 785.130112 71.5650558"></polygon>
                <polygon id="Path" points="678.066914 101.304833 707.806691 101.304833 707.806691 71.5650558 678.066914 71.5650558"></polygon>
                <polygon id="Path" opacity="0.8" points="642.379182 101.304833 672.118959 101.304833 672.118959 71.5650558 642.379182 71.5650558"></polygon>
                <polygon id="Path" points="535.315985 101.304833 565.055762 101.304833 565.055762 71.5650558 535.315985 71.5650558"></polygon>
                <polygon id="Path" points="463.94052 101.304833 493.680297 101.304833 493.680297 71.5650558 463.94052 71.5650558"></polygon>
                <polygon id="Path" points="392.565056 101.304833 422.304833 101.304833 422.304833 71.5650558 392.565056 71.5650558"></polygon>
                <polygon id="Path" points="356.877323 101.304833 386.6171 101.304833 386.6171 71.5650558 356.877323 71.5650558"></polygon>
                <polygon id="Path" fill-opacity="0.4" points="321.189591 101.304833 350.929368 101.304833 350.929368 71.5650558 321.189591 71.5650558"></polygon>
                <polygon id="Path" points="249.814126 101.304833 279.553903 101.304833 279.553903 71.5650558 249.814126 71.5650558"></polygon>
                <polygon id="Path" points="214.126394 101.304833 243.866171 101.304833 243.866171 71.5650558 214.126394 71.5650558"></polygon>
                <polygon id="Path" opacity="0.8" points="178.438662 101.304833 208.178439 101.304833 208.178439 71.5650558 178.438662 71.5650558"></polygon>
                <polygon id="Path" points="107.063197 101.304833 136.802974 101.304833 136.802974 71.5650558 107.063197 71.5650558"></polygon>
                <polygon id="Path" points="35.6877323 101.304833 65.4275093 101.304833 65.4275093 71.5650558 35.6877323 71.5650558"></polygon>
            </g>
        </g>
    </g>
</svg>