<svg id="tivan_logo" width="84px" height="42px" viewBox="0 0 84 42" version="1.1" xmlns="http://www.w3.org/2000/svg">
    <g stroke="none" stroke-width="1" fill="none" fill-rule="evenodd">
        <path d="M0.201171875,13.4023438 L0.201171875,0.74609375 L19.9472656,0.74609375 L19.9472656,13.4023438 L16.7539063,13.4023438 L16.7539063,3.96875 L11.890625,3.96875 L11.890625,37.6894531 L16.109375,37.6894531 L16.109375,41 L4.0390625,41 L4.0390625,37.6894531 L8.22851563,37.6894531 L8.22851563,3.96875 L3.39453125,3.96875 L3.39453125,13.4023438 L0.201171875,13.4023438 Z M22.0566406,13.109375 L28.1210938,13.109375 L28.1210938,37.6894531 L31.0507812,37.6894531 L31.0507812,41 L22.0566406,41 L22.0566406,37.6894531 L24.4589844,37.6894531 L24.4589844,16.390625 L22.0566406,16.390625 L22.0566406,13.109375 Z M23.0820312,5.22851562 C23.0820312,4.44726172 23.3408177,3.78320586 23.8583984,3.23632812 C24.3759792,2.68945039 25.0351522,2.41601562 25.8359375,2.41601562 C26.6171914,2.41601562 27.2812473,2.68945039 27.828125,3.23632812 C28.3750027,3.78320586 28.6484375,4.44726172 28.6484375,5.22851562 C28.6484375,6.02930088 28.3750027,6.69335674 27.828125,7.22070312 C27.2812473,7.74804951 26.6171914,8.01171875 25.8359375,8.01171875 C25.0351522,8.01171875 24.3759792,7.74804951 23.8583984,7.22070312 C23.3408177,6.69335674 23.0820312,6.02930088 23.0820312,5.22851562 Z M31.4023438,13.109375 L38.9609375,13.109375 L38.9609375,16.390625 L37.0566406,16.390625 L39.9863281,35.6679688 L42.9160156,16.390625 L41.0117188,16.390625 L41.0117188,13.109375 L48.5703125,13.109375 L48.5703125,16.390625 L46.6367188,16.390625 L41.890625,41 L37.9941406,41 L33.3359375,16.390625 L31.4023438,16.390625 L31.4023438,13.109375 Z M58.1796875,26.3515625 C57.1445261,26.4492192 56.3095735,26.6591781 55.6748047,26.9814453 C55.0400359,27.3037125 54.5468768,27.7529268 54.1953125,28.3291016 C53.8437482,28.9052763 53.6093756,29.6132771 53.4921875,30.453125 C53.3749994,31.2929729 53.3164062,32.2695257 53.3164062,33.3828125 C53.3164062,35.1015711 53.4921857,36.4101518 53.84375,37.3085938 C54.1953143,38.2070357 54.6738251,38.65625 55.2792969,38.65625 C55.5332044,38.65625 55.8017564,38.5585947 56.0849609,38.3632812 C56.3681655,38.1679678 56.6416002,37.9042985 56.9052734,37.5722656 C57.1689466,37.2402327 57.4130848,36.8447289 57.6376953,36.3857422 C57.8623058,35.9267555 58.0429681,35.4433619 58.1796875,34.9355469 L58.1796875,26.3515625 Z M50.7382812,19.2324219 C50.8554693,17.8261648 51.089842,16.6787154 51.4414062,15.7900391 C51.7929705,14.9013627 52.2177709,14.1982448 52.7158203,13.6806641 C53.2138697,13.1630833 53.7753875,12.8066416 54.4003906,12.6113281 C55.0253938,12.4160146 55.6796841,12.3183594 56.3632812,12.3183594 C57.1250038,12.3183594 57.8378873,12.4404285 58.5019531,12.6845703 C59.1660189,12.9287122 59.7470678,13.3681609 60.2451172,14.0029297 C60.7431666,14.6376985 61.1337876,15.5117132 61.4169922,16.625 C61.7001967,17.7382868 61.8417969,19.1640538 61.8417969,20.9023438 L61.8417969,37.6894531 L64.2441406,37.6894531 L64.2441406,41 L58.1796875,41 L58.1796875,39.0664062 C57.6132784,39.9843796 57.0371123,40.6679665 56.4511719,41.1171875 C55.8652314,41.5664085 55.0937548,41.7910156 54.1367188,41.7910156 C53.5507783,41.7910156 52.9941433,41.6152361 52.4667969,41.2636719 C51.9394505,40.9121076 51.4707052,40.3896519 51.0605469,39.6962891 C50.6503886,39.0029262 50.3232434,38.1435598 50.0791016,37.1181641 C49.8349597,36.0927683 49.7128906,34.9062567 49.7128906,33.5585938 C49.7128906,31.6445217 49.9277322,30.0771545 50.3574219,28.8564453 C50.7871115,27.6357361 51.3828087,26.6591833 52.1445312,25.9267578 C52.9062538,25.1943323 53.7997996,24.6572283 54.8251953,24.3154297 C55.8505911,23.9736311 56.9687439,23.7148446 58.1796875,23.5390625 L58.1796875,20.84375 C58.1796875,19.6718691 58.1259771,18.7343785 58.0185547,18.03125 C57.9111323,17.3281215 57.7695321,16.7861347 57.59375,16.4052734 C57.4179679,16.0244122 57.2177746,15.7705084 56.9931641,15.6435547 C56.7685536,15.5166009 56.5390637,15.453125 56.3046875,15.453125 C55.6796844,15.453125 55.2011735,15.7998012 54.8691406,16.4931641 C54.5371077,17.1865269 54.3222661,18.2949143 54.2246094,19.8183594 L50.7382812,19.2324219 Z M65.7382812,13.109375 L71.8027344,13.109375 L71.8027344,16.2148438 C72.4863315,15.0429629 73.2138633,14.1005895 73.9853516,13.3876953 C74.7568398,12.6748011 75.64062,12.3183594 76.6367188,12.3183594 C78.0820385,12.3183594 79.1171844,12.9531187 79.7421875,14.2226562 C80.3671906,15.4921938 80.6796875,17.2988164 80.6796875,19.6425781 L80.6796875,37.6894531 L83.0820312,37.6894531 L83.0820312,41 L75.2011719,41 L75.2011719,37.6894531 L77.0175781,37.6894531 L77.0175781,20.7851562 C77.0175781,19.7109321 76.9931643,18.8418002 76.9443359,18.1777344 C76.8955076,17.5136686 76.8173833,16.9912128 76.7099609,16.6103516 C76.6025385,16.2294903 76.4609384,15.9707038 76.2851562,15.8339844 C76.1093741,15.6972649 75.8945325,15.6289062 75.640625,15.6289062 C75.249998,15.6289062 74.8544942,15.819334 74.4541016,16.2001953 C74.0537089,16.5810566 73.6777361,17.0742157 73.3261719,17.6796875 C72.9746076,18.2851593 72.6621107,18.9638634 72.3886719,19.7158203 C72.115233,20.4677772 71.9199225,21.2246056 71.8027344,21.9863281 L71.8027344,37.6894531 L73.5898438,37.6894531 L73.5898438,41 L65.7382812,41 L65.7382812,37.6894531 L68.140625,37.6894531 L68.140625,16.390625 L65.7382812,16.390625 L65.7382812,13.109375 Z" id="tivan" fill="#292F36"></path>
    </g>
</svg>